<svg width="105" height="107" viewBox="0 0 105 107" fill="none" xmlns="http://www.w3.org/2000/svg">
<path fill-rule="evenodd" clip-rule="evenodd" d="M104.989 -61.6636C98.2276 -54.9192 89.8327 -45.6738 87.1742 -35.1803C86.3434 -31.9012 86.0723 -28.4987 86.5858 -25.013C86.0258 -22.5456 85.7884 -20.0107 85.968 -17.4252C85.9013 -17.1866 85.8376 -16.9474 85.7768 -16.7075C85.3045 -14.8433 85.0131 -12.9394 84.9439 -11.0029C84.625 -10.0972 84.3457 -9.18093 84.1111 -8.25493C84.0409 -7.97778 83.9747 -7.69976 83.9126 -7.42088C77.7496 -0.994927 71.0523 7.21767 68.7304 16.3823C67.3989 21.6382 67.505 27.2109 69.9754 32.9353C72.4446 38.6569 77.2661 44.508 85.3262 50.3378C104.103 63.9194 121.574 64.6008 134.978 65.1235C136.223 65.172 137.433 65.2192 138.605 65.2752C145.525 65.6058 151.067 66.2443 154.923 69.1873C158.758 72.1149 161.001 77.3904 161.114 87.1986L161.703 87.2125C161.589 77.3552 159.338 71.8573 155.284 68.7629C151.25 65.6839 145.506 65.0518 138.614 64.7226C137.439 64.6665 136.229 64.6192 134.986 64.5705C121.588 64.0467 104.293 63.3704 85.6748 49.9039C77.6779 44.1197 72.9382 38.3466 70.5201 32.7434C68.1032 27.1428 67.9961 21.6899 69.3037 16.5286C71.5105 7.81837 77.7424 -0.0503893 83.6951 -6.34762L83.6896 -6.31748C83.538 -5.98496 83.3912 -5.6508 83.2495 -5.31503C79.1429 -0.207658 75.5128 5.6107 73.9261 11.8737C72.5945 17.1295 72.7006 22.7023 75.171 28.4266C77.6402 34.1483 82.4618 39.9993 90.5218 45.8292C109.299 59.4108 126.77 60.0921 140.174 60.6149C141.419 60.6634 142.628 60.7106 143.801 60.7666C150.721 61.0972 156.262 61.7357 160.118 64.6787C163.954 67.6063 166.196 72.8818 166.309 82.69L166.898 82.7039C166.785 72.8465 164.534 67.3487 160.48 64.2543C156.446 61.1753 150.701 60.5432 143.809 60.2139C142.635 60.1578 141.425 60.1105 140.181 60.0619C126.783 59.538 109.488 58.8618 90.8705 45.3953C82.8736 39.6111 78.1338 33.838 75.7157 28.2347C73.2988 22.6342 73.1917 17.1812 74.4993 12.02C75.7979 6.89428 78.4904 2.05999 81.6997 -2.33413C80.2044 0.396694 78.9996 3.25466 78.2505 6.21176C76.9189 11.4676 77.025 17.0404 79.4954 22.7647C81.9646 28.4864 86.7861 34.3374 94.8462 40.1673C113.623 53.7489 131.094 54.4302 144.498 54.9529L144.5 54.953L144.5 54.953L144.504 54.9532L144.507 54.9533C145.749 55.0017 146.956 55.0488 148.125 55.1047C155.045 55.4353 160.587 56.0738 164.443 59.0168C168.278 61.9444 170.521 67.2199 170.634 77.0281L171.223 77.042C171.109 67.1847 168.858 61.6868 164.804 58.5924C160.77 55.5134 155.026 54.8813 148.134 54.552C146.959 54.4959 145.749 54.4486 144.506 54.4C131.108 53.8761 113.813 53.1999 95.1949 39.7334C87.198 33.9492 82.4582 28.1761 80.0401 22.5728C77.6232 16.9723 77.5161 11.5193 78.8237 6.35808C79.4997 3.69005 80.5533 1.10098 81.8609 -1.38816C81.7819 -1.10983 81.7068 -0.830593 81.6358 -0.550465C80.3043 4.70541 80.4104 10.2781 82.8808 16.0025C85.35 21.7242 90.1715 27.5752 98.2316 33.4051C117.009 46.9867 134.48 47.668 147.884 48.1907L147.885 48.1908C149.129 48.2393 150.339 48.2865 151.51 48.3424C158.431 48.6731 163.972 49.3116 167.828 52.2546C171.664 55.1822 173.906 60.4577 174.019 70.2658L174.608 70.2797C174.494 60.4224 172.243 54.9246 168.189 51.8301C164.155 48.7512 158.411 48.1191 151.519 47.7898C150.345 47.7337 149.135 47.6864 147.891 47.6378C134.493 47.1139 117.198 46.4377 98.5802 32.9711C90.5833 27.187 85.8436 21.4138 83.4255 15.8106C81.0086 10.21 80.9015 4.75711 82.2091 -0.404156C82.5215 -1.63735 82.9146 -2.85368 83.3762 -4.05107C82.9984 -0.0612955 83.5345 4.07715 85.356 8.29803C87.8252 14.0197 92.6468 19.8707 100.707 25.7006C119.484 39.2822 136.955 39.9635 150.359 40.4863C151.604 40.5348 152.813 40.582 153.986 40.638C160.906 40.9686 166.447 41.6071 170.303 44.5501C174.139 47.4777 176.381 52.7532 176.494 62.5614L177.083 62.5753C176.97 52.718 174.719 47.2201 170.665 44.1257C166.631 41.0467 160.886 40.4146 153.995 40.0853C152.82 40.0292 151.61 39.9819 150.366 39.9333C136.968 39.4094 119.674 38.7332 101.055 25.2667C93.0586 19.4825 88.3189 13.7094 85.9008 8.10615C83.9303 3.5401 83.4952 -0.927827 84.1102 -5.21957C84.361 -5.60683 84.6167 -5.99115 84.8769 -6.37245C84.9723 -6.4859 85.068 -6.599 85.1637 -6.71171C85.4658 -4.55495 86.0673 -2.36604 87.0217 -0.154496C89.4909 5.56719 94.3125 11.4182 102.373 17.2481C121.15 30.8297 138.621 31.511 152.025 32.0337C153.269 32.0823 154.479 32.1294 155.651 32.1855C162.572 32.5161 168.113 33.1546 171.969 36.0976C175.804 39.0252 178.047 44.3007 178.16 54.1088L178.749 54.1228C178.635 44.2654 176.384 38.7676 172.33 35.6731C168.296 32.5942 162.552 31.9621 155.66 31.6328C154.486 31.5767 153.276 31.5294 152.032 31.4808C138.634 30.9569 121.339 30.2807 102.721 16.8142C94.7243 11.03 89.9845 5.25685 87.5665 -0.346367C86.5518 -2.69751 85.9443 -5.02263 85.6776 -7.31108C86.3779 -8.12094 87.0852 -8.91061 87.7922 -9.67886C87.8605 -9.51174 87.9307 -9.34449 88.0029 -9.17711C90.4721 -3.45543 95.2937 2.39558 103.354 8.22546C122.131 21.8071 139.602 22.4884 153.006 23.0111L153.009 23.0112L153.011 23.0113L153.016 23.0115L153.022 23.0117C154.261 23.0601 155.465 23.1071 156.633 23.1628C163.553 23.4935 169.094 24.132 172.95 27.075C176.786 30.0025 179.028 35.2781 179.141 45.0862L179.73 45.1001C179.617 35.2428 177.366 29.745 173.311 26.6505C169.278 23.5716 163.533 22.9395 156.641 22.6102C155.467 22.5541 154.257 22.5068 153.013 22.4582C139.615 21.9343 122.32 21.258 103.702 7.79154C95.7055 2.00735 90.9657 -3.76577 88.5477 -9.36899C88.4355 -9.62885 88.3283 -9.8884 88.2261 -10.1476C89.2763 -11.2763 90.3228 -12.3571 91.3422 -13.3861C94.1134 -9.35593 98.1561 -5.28522 103.77 -1.22476C122.547 12.3568 140.018 13.0382 153.422 13.5609C154.667 13.6094 155.876 13.6566 157.049 13.7126C163.969 14.0432 169.51 14.6817 173.366 17.6248C177.202 20.5523 179.444 25.8278 179.557 35.636L180.146 35.6499C180.033 25.7926 177.782 20.2947 173.728 17.2003C169.694 14.1213 163.949 13.4892 157.058 13.16C155.883 13.1039 154.673 13.0566 153.429 13.0079C140.031 12.4841 122.737 11.8078 104.119 -1.65868C98.4918 -5.72854 94.4776 -9.79291 91.75 -13.7965L91.9348 -13.9816L92.1761 -14.2227L91.7405 -14.6096C91.6342 -14.5036 91.5275 -14.3969 91.4204 -14.2896C91.3839 -14.3453 91.3476 -14.4009 91.3116 -14.4565C93.0621 -16.4008 94.828 -18.2163 96.5005 -19.8846L96.0649 -20.2715C94.433 -18.6436 92.7058 -16.8699 90.9871 -14.9682C90.7678 -15.3213 90.5582 -15.6739 90.3583 -16.0259C93.3966 -19.9899 96.8003 -23.5689 99.8858 -26.6468L99.4503 -27.0338C96.4235 -24.0145 93.0693 -20.4939 90.0489 -16.5845C89.7235 -17.1868 89.4261 -17.7873 89.1553 -18.386C92.8712 -24.5082 97.9425 -29.9435 102.361 -34.3513L101.926 -34.7382C97.5983 -30.4217 92.6018 -25.0806 88.8683 -19.0434C88.5353 -19.8345 88.2483 -20.6226 88.0047 -21.4073C91.573 -29.7572 98.3404 -37.1313 104.027 -42.8038L103.591 -43.1908C98.0577 -37.6708 91.4297 -30.4756 87.7479 -22.2918C87.505 -23.1906 87.3182 -24.0846 87.1835 -24.9733C87.2306 -25.1772 87.2798 -25.3807 87.3312 -25.5838C89.9511 -35.9245 98.2442 -45.0792 105.008 -51.8264L104.572 -52.2134C98 -45.6571 89.8835 -36.7373 86.9936 -26.6051C86.7589 -29.4823 87.0546 -32.2991 87.7474 -35.034C90.3673 -45.3747 98.6604 -54.5295 105.424 -61.2766L104.989 -61.6636ZM85.037 -7.74698C84.9666 -7.60943 84.897 -7.47159 84.8281 -7.33344C84.9021 -7.43885 84.9764 -7.54402 85.0509 -7.64894L85.0409 -7.75098L85.037 -7.74698ZM86.743 -9.92497C86.9554 -10.1989 87.1694 -10.4708 87.3848 -10.7408C87.3015 -10.9725 87.222 -11.204 87.1463 -11.4351C86.7638 -10.8286 86.3941 -10.215 86.0391 -9.59472C86.2086 -9.76501 86.3772 -9.93378 86.5449 -10.101L86.743 -9.92497ZM91.0103 -13.8777C90.3989 -13.2615 89.7766 -12.6259 89.1486 -11.9717C89.733 -12.6678 90.3243 -13.3499 90.9183 -14.0173L90.9784 -13.9259L91.0103 -13.8777ZM90.5907 -14.527C90.3795 -14.8623 90.177 -15.1972 89.9829 -15.5317C89.1368 -14.4074 88.3219 -13.2529 87.5534 -12.0709C87.6346 -11.8049 87.7208 -11.5385 87.8121 -11.2718C88.7222 -12.3927 89.654 -13.4787 90.5907 -14.527ZM84.8829 -8.72318L84.8093 -8.58513C84.8545 -8.75165 84.901 -8.91787 84.9491 -9.08376C84.9521 -9.01082 84.9554 -8.93784 84.9591 -8.86482L84.8829 -8.72318ZM86.9175 -12.1699C86.4309 -11.4142 85.963 -10.6471 85.5178 -9.86921C85.5147 -10.2092 85.5188 -10.5483 85.5298 -10.8864C85.8402 -11.7614 86.1881 -12.6268 86.5689 -13.4816C86.6722 -13.0455 86.7883 -12.6083 86.9175 -12.1699ZM89.6682 -16.0873C88.8611 -15.0237 88.0804 -13.932 87.339 -12.8146C87.1988 -13.3312 87.0771 -13.8462 86.9732 -14.3595C87.5264 -15.5233 88.1387 -16.6668 88.7979 -17.7879C89.0644 -17.2222 89.3542 -16.6553 89.6682 -16.0873ZM88.5008 -18.44C88.4733 -18.5025 88.446 -18.5649 88.4191 -18.6273C88.137 -19.281 87.8857 -19.9327 87.6639 -20.5822C87.2406 -19.5203 86.8704 -18.4432 86.5621 -17.3524C86.611 -16.6852 86.6883 -16.0147 86.7956 -15.3412C87.3211 -16.3921 87.8925 -17.4256 88.5008 -18.44ZM86.3609 -14.445C86.2783 -14.8682 86.2076 -15.2902 86.1482 -15.711C85.9432 -14.7853 85.7847 -13.8506 85.6778 -12.9076C85.8937 -13.4239 86.1217 -13.9364 86.3609 -14.445ZM87.3831 -21.4547C87.0604 -20.6891 86.7643 -19.9152 86.498 -19.1335C86.4993 -20.5832 86.6301 -22.0159 86.8727 -23.4288C87.0138 -22.7733 87.1835 -22.1152 87.3831 -21.4547ZM62.8196 19.8256C65.4781 9.3321 73.873 0.0867039 80.634 -6.65766L81.0695 -6.27068C74.3058 0.476476 66.0126 9.63121 63.3928 19.9719C62.0852 25.1332 62.1923 30.5862 64.6092 36.1867C67.0273 41.7899 71.767 47.5631 79.7639 53.3473C98.382 66.8138 115.677 67.49 129.075 68.0139C130.318 68.0625 131.529 68.1098 132.703 68.1659C139.595 68.4952 145.339 69.1273 149.373 72.2062C153.427 75.3007 155.678 80.7985 155.792 90.6558L155.203 90.6419C155.09 80.8338 152.847 75.5583 149.012 72.6307C145.156 69.6877 139.614 69.0492 132.694 68.7186C131.522 68.6625 130.312 68.6154 129.067 68.5668C115.664 68.0441 98.1924 67.3628 79.4153 53.7812C71.3552 47.9513 66.5337 42.1003 64.0645 36.3786C61.5941 30.6543 61.488 25.0815 62.8196 19.8256ZM74.1984 -4.08044C67.4374 2.66393 59.0424 11.9093 56.3839 22.4029C55.0523 27.6587 55.1585 33.2315 57.6288 38.9558C60.098 44.6775 64.9196 50.5285 72.9797 56.3584C91.7568 69.94 109.228 70.6213 122.632 71.144L122.632 71.144C123.876 71.1926 125.086 71.2398 126.259 71.2958C133.179 71.6264 138.72 72.2649 142.576 75.2079C146.412 78.1355 148.654 83.411 148.767 93.2192L149.356 93.2331C149.243 83.3758 146.992 77.8779 142.937 74.7835C138.903 71.7045 133.159 71.0724 126.267 70.7432C125.093 70.687 123.883 70.6397 122.639 70.5911C109.241 70.0672 91.9463 69.391 73.3283 55.9245C65.3314 50.1403 60.5917 44.3672 58.1736 38.764C55.7567 33.1634 55.6496 27.7104 56.9572 22.5492C59.577 12.2084 67.8701 3.05371 74.6339 -3.69345L74.1984 -4.08044ZM49.5994 24.3578C52.258 13.8642 60.6529 4.61884 67.4139 -2.12553L67.8494 -1.73854C61.0856 5.00862 52.7925 14.1633 50.1727 24.5041C48.8651 29.6654 48.9722 35.1183 51.3891 40.7189C53.8072 46.3221 58.5469 52.0952 66.5438 57.8794C85.1618 71.3459 102.457 72.0221 115.855 72.546C117.098 72.5946 118.308 72.642 119.483 72.6981C126.375 73.0273 132.119 73.6594 136.153 76.7384C140.207 79.8328 142.458 85.3307 142.572 95.188L141.983 95.1741C141.87 85.3659 139.627 80.0904 135.792 77.1628C131.936 74.2198 126.394 73.5813 119.474 73.2507C118.302 73.1947 117.092 73.1475 115.847 73.099C102.443 72.5762 84.9723 71.8949 66.1952 58.3133C58.1351 52.4834 53.3135 46.6324 50.8443 40.9107C48.374 35.1864 48.2678 29.6137 49.5994 24.3578ZM60.4246 -0.557824C53.6636 6.18655 45.2687 15.4319 42.6102 25.9255C41.2786 31.1814 41.3847 36.7541 43.8551 42.4784C46.3243 48.2001 51.1458 54.0511 59.2059 59.881C77.983 73.4626 95.4541 74.1439 108.858 74.6667C110.103 74.7152 111.312 74.7624 112.485 74.8184C119.405 75.149 124.946 75.7875 128.802 78.7305C132.638 81.6581 134.88 86.9336 134.993 96.7418L135.582 96.7557C135.469 86.8984 133.218 81.4005 129.164 78.3061C125.13 75.2271 119.385 74.595 112.494 74.2658C111.319 74.2097 110.109 74.1623 108.865 74.1137C95.4674 73.5898 78.1726 72.9136 59.5545 59.4471C51.5576 53.6629 46.8179 47.8898 44.3998 42.2866C41.9829 36.686 41.8758 31.2331 43.1834 26.0718C45.8032 15.731 54.0964 6.57632 60.8601 -0.170842L60.4246 -0.557824ZM35.5237 27.304C38.1822 16.8105 46.5771 7.56506 53.3381 0.82069L53.7737 1.20767C47.0099 7.95483 38.7168 17.1096 36.097 27.4503C34.7894 32.6116 34.8964 38.0645 37.3134 43.6651C39.7314 49.2683 44.4712 55.0414 52.4681 60.8256C71.0861 74.2921 88.3809 74.9684 101.779 75.4922C103.023 75.5408 104.233 75.5882 105.407 75.6443C112.299 75.9735 118.043 76.6056 122.077 79.6846C126.131 82.779 128.382 88.2769 128.496 98.1342L127.907 98.1203C127.794 88.3121 125.551 83.0366 121.716 80.109C117.86 77.166 112.318 76.5275 105.398 76.1969C104.226 76.1409 103.016 76.0937 101.771 76.0452C88.3677 75.5225 70.8966 74.8411 52.1194 61.2595C44.0594 55.4297 39.2378 49.5786 36.7686 43.8569C34.2983 38.1326 34.1921 32.5599 35.5237 27.304ZM46.2365 2.16744C39.4755 8.91181 31.0806 18.1572 28.4221 28.6507C27.0905 33.9066 27.1967 39.4794 29.667 45.2037C32.1362 50.9254 36.9578 56.7764 45.0178 62.6063C63.795 76.1879 81.2661 76.8692 94.6699 77.3919C95.9146 77.4405 97.1243 77.4876 98.2968 77.5437C105.217 77.8743 110.758 78.5128 114.614 81.4558C118.45 84.3834 120.692 89.6589 120.805 99.467L121.394 99.481C121.281 89.6236 119.03 84.1258 114.976 81.0313C110.942 77.9524 105.197 77.3203 98.3055 76.991C97.1311 76.9349 95.921 76.8876 94.6773 76.839C81.2793 76.3151 63.9845 75.6389 45.3665 62.1724C37.3696 56.3882 32.6299 50.615 30.2118 45.0118C27.7949 39.4113 27.6878 33.9583 28.9954 28.7971C31.6152 18.4563 39.9083 9.30158 46.6721 2.55442L46.2365 2.16744ZM21.3632 30.0839C24.0217 19.5903 32.4166 10.3449 39.1776 3.60056L39.6131 3.98754C32.8494 10.7347 24.5563 19.8894 21.9364 30.2302C20.6288 35.3914 20.7359 40.8444 23.1528 46.4449C25.5709 52.0482 30.3107 57.8213 38.3075 63.6055C56.9256 77.072 74.2204 77.7482 87.6183 78.2721C88.862 78.3207 90.0721 78.368 91.2466 78.4241C98.1383 78.7534 103.883 79.3855 107.917 82.4645C111.971 85.5589 114.222 91.0567 114.335 100.914L113.746 100.9C113.633 91.092 111.391 85.8165 107.555 82.8889C103.699 79.9459 98.1579 79.3074 91.2378 78.9768C90.0654 78.9208 88.8557 78.8736 87.6109 78.825C74.2071 78.3023 56.736 77.621 37.9589 64.0394C29.8988 58.2095 25.0773 52.3585 22.6081 46.6368C20.1377 40.9125 20.0316 35.3397 21.3632 30.0839ZM32.2082 5.20677C25.4472 11.9511 17.0523 21.1965 14.3938 31.6901C13.0622 36.9459 13.1684 42.5187 15.6387 48.243C18.1079 53.9647 22.9295 59.8157 30.9895 65.6456C49.7666 79.2272 67.2377 79.9085 80.6415 80.4313L80.6415 80.4313C81.8863 80.4798 83.096 80.527 84.2684 80.583C91.1885 80.9136 96.7301 81.5521 100.586 84.4951C104.421 87.4227 106.664 92.6982 106.777 102.506L107.366 102.52C107.252 92.663 105.001 87.1651 100.947 84.0707C96.9134 80.9917 91.1689 80.3596 84.2772 80.0304C83.1027 79.9742 81.8926 79.9269 80.649 79.8783C67.251 79.3544 49.9562 78.6782 31.3382 65.2117C23.3413 59.4275 18.6015 53.6544 16.1835 48.0512C13.7665 42.4506 13.6595 36.9976 14.9671 31.8364C17.5869 21.4956 25.88 12.3409 32.6438 5.59375L32.2082 5.20677ZM7.54767 33.5294C10.2062 23.0359 18.6011 13.7905 25.3621 7.04612L25.7977 7.4331C19.0339 14.1803 10.7408 23.335 8.12094 33.6757C6.81334 38.837 6.92042 44.2899 9.33735 49.8905C11.7554 55.4937 16.4952 61.2668 24.4921 67.051C43.1101 80.5175 60.4049 81.1938 73.8028 81.7177C75.0465 81.7663 76.2566 81.8136 77.4311 81.8697C84.3228 82.199 90.0672 82.831 94.1012 85.91C98.1553 89.0044 100.406 94.5023 100.52 104.36L99.931 104.346C99.8179 94.5376 97.5753 89.262 93.7398 86.3345C89.884 83.3915 84.3424 82.753 77.4223 82.4223C76.2499 82.3663 75.0402 82.3191 73.7955 82.2706L73.7954 82.2706C60.3917 81.7479 42.9205 81.0665 24.1434 67.485C16.0834 61.6551 11.2618 55.8041 8.7926 50.0824C6.32225 44.358 6.21609 38.7853 7.54767 33.5294ZM18.6634 9.15854C11.9024 15.9029 3.5075 25.1483 0.848965 35.6418C-0.482608 40.8977 -0.376449 46.4705 2.09389 52.1948C4.56309 57.9165 9.38465 63.7675 17.4447 69.5974C36.2218 83.1789 53.6929 83.8603 67.0967 84.383L67.0967 84.383L67.0968 84.383C68.3415 84.4316 69.5512 84.4787 70.7236 84.5348C77.6437 84.8654 83.1853 85.5039 87.0411 88.4469C90.8766 91.3745 93.1192 96.65 93.2323 106.458L93.8213 106.472C93.7076 96.6147 91.4566 91.1169 87.4025 88.0224C83.3685 84.9435 77.6241 84.3114 70.7324 83.9821C69.5579 83.926 68.3478 83.8787 67.1041 83.8301C53.7062 83.3062 36.4114 82.63 17.7934 69.1635C9.79646 63.3793 5.05672 57.6061 2.63865 52.0029C0.221718 46.4023 0.114637 40.9494 1.42224 35.7881C4.04206 25.4474 12.3352 16.2927 19.099 9.54552L18.6634 9.15854Z" fill="url(#paint0_radial_1_189)" fill-opacity="0.58"/>
<defs>
<radialGradient id="paint0_radial_1_189" cx="0" cy="0" r="1" gradientTransform="matrix(58.4989 57.7994 -62.382 55.2509 78.4536 40.6409)" gradientUnits="userSpaceOnUse">
<stop stop-color="white"/>
<stop offset="1" stop-color="#1E1E1E" stop-opacity="0"/>
<stop offset="1" stop-color="#0E0E35" stop-opacity="0"/>
<stop offset="1" stop-color="white" stop-opacity="0"/>
</radialGradient>
</defs>
</svg>
