<svg width="28" height="29" viewBox="0 0 28 29" fill="none" xmlns="http://www.w3.org/2000/svg">
<path d="M6.28444 11.6527C7.39736 8.28037 10.5666 5.85837 14.3204 5.85837C16.3382 5.85837 18.1609 6.57439 19.5929 7.74607L23.7588 3.58011C21.2202 1.36695 17.9656 0 14.3204 0C8.6758 0 3.81601 3.22007 1.47968 7.93595L6.28444 11.6527Z" fill="#EA4335"/>
<path d="M19.1425 21.4955C17.842 22.3353 16.1894 22.7823 14.3204 22.7823C10.581 22.7823 7.42171 20.3788 6.29739 17.0266L1.47675 20.6868C3.81018 25.411 8.66984 28.6407 14.3204 28.6407C17.8204 28.6407 21.1648 27.3965 23.6695 25.0601L19.1425 21.4955Z" fill="#34A853"/>
<path d="M23.6694 25.0601C26.2888 22.6167 27.9898 18.9788 27.9898 14.3203C27.9898 13.4741 27.8597 12.5628 27.6644 11.7166H14.3203V17.2495H22.0013C21.6223 19.11 20.605 20.5511 19.1424 21.4955L23.6694 25.0601Z" fill="#4A90E2"/>
<path d="M6.2974 17.0271C6.0126 16.1779 5.85837 15.2679 5.85837 14.3206C5.85837 13.3878 6.00795 12.491 6.28453 11.6529L1.47977 7.93613C0.521011 9.85794 0 12.0239 0 14.3206C0 16.6114 0.530789 18.7721 1.47675 20.6873L6.2974 17.0271Z" fill="#FBBC05"/>
</svg>
